<svg xmlns="http://www.w3.org/2000/svg" width="240" height="240" viewBox="0 0 240 240" fill="none"><rect width="240" height="240" rx="48" fill="#111418"/><circle cx="120" cy="112" r="58" fill="url(#g)"/><path d="M120 54v-26" stroke="#FFD76A" stroke-width="10" stroke-linecap="round"/><circle cx="120" cy="22" r="12" fill="#FFD76A"/><ellipse cx="94" cy="106" rx="8" ry="12" fill="#0F1115"/><ellipse cx="146" cy="106" rx="8" ry="12" fill="#0F1115"/><path d="M101 136c11 13 29 13 40 0" stroke="#0F1115" stroke-width="8" stroke-linecap="round"/><path d="M75 139c-18 3-28 18-25 35 3 18 24 24 42 13" fill="url(#g)"/><path d="M165 139c18 3 28 18 25 35-3 18-24 24-42 13" fill="url(#g)"/><text x="120" y="220" text-anchor="middle" fill="#A8A29A" font-family="Arial" font-size="15">??</text><defs><linearGradient id="g" x1="70" y1="54" x2="166" y2="180"><stop stop-color="#FFF3C2"/><stop offset="0.48" stop-color="#FFD76A"/><stop offset="1" stop-color="#FFB84D"/></linearGradient></defs></svg>