<svg xmlns="http://www.w3.org/2000/svg" width="96" height="96" viewBox="0 0 96 96" fill="none">
  <rect width="96" height="96" rx="24" fill="#0F1115"/>
  <circle cx="48" cy="48" r="28" fill="url(#body)"/>
  <path d="M48 21V10" stroke="#FFD76A" stroke-width="5" stroke-linecap="round"/>
  <circle cx="48" cy="8" r="6" fill="#FFD76A"/>
  <ellipse cx="36" cy="45" rx="4" ry="6" fill="#111111"/>
  <ellipse cx="60" cy="45" rx="4" ry="6" fill="#111111"/>
  <path d="M39 60c6 7 14 7 20 0" stroke="#111111" stroke-width="4" stroke-linecap="round"/>
  <path d="M28 62c-9 2-14 9-12 17 2 9 12 12 21 6" fill="url(#body)"/>
  <path d="M68 62c9 2 14 9 12 17-2 9-12 12-21 6" fill="url(#body)"/>
  <rect x="3" y="3" width="90" height="90" rx="22" stroke="rgba(255,215,106,0.32)" stroke-width="2"/>
  <defs>
    <linearGradient id="body" x1="23" y1="18" x2="76" y2="82" gradientUnits="userSpaceOnUse">
      <stop stop-color="#FFF3C2"/>
      <stop offset="0.55" stop-color="#FFD76A"/>
      <stop offset="1" stop-color="#FFB84D"/>
    </linearGradient>
  </defs>
</svg>
