<svg xmlns="http://www.w3.org/2000/svg" width="1200" height="630" viewBox="0 0 1200 630" fill="none">
  <rect width="1200" height="630" fill="#0F1115"/>
  <circle cx="390" cy="150" r="310" fill="rgba(255,215,106,0.10)"/>
  <circle cx="980" cy="90" r="260" fill="rgba(255,184,77,0.08)"/>
  <rect x="64" y="64" width="1072" height="502" rx="48" fill="rgba(255,255,255,0.045)" stroke="rgba(255,215,106,0.22)" stroke-width="2"/>
  <g transform="translate(794 146)">
    <circle cx="120" cy="120" r="92" fill="url(#body)"/>
    <path d="M120 32V-8" stroke="#FFD76A" stroke-width="14" stroke-linecap="round"/>
    <circle cx="120" cy="-18" r="18" fill="#FFD76A"/>
    <ellipse cx="82" cy="108" rx="12" ry="18" fill="#111111"/>
    <ellipse cx="158" cy="108" rx="12" ry="18" fill="#111111"/>
    <path d="M94 154c16 17 36 17 52 0" stroke="#111111" stroke-width="12" stroke-linecap="round"/>
    <path d="M54 164c-30 5-46 28-40 54 6 28 40 36 69 18" fill="url(#body)"/>
    <path d="M186 164c30 5 46 28 40 54-6 28-40 36-69 18" fill="url(#body)"/>
  </g>
  <text x="112" y="168" fill="#FFD76A" font-family="Arial, sans-serif" font-size="34" font-weight="700">pinple 拼朋友</text>
  <text x="112" y="262" fill="#F7F4EA" font-family="Arial, sans-serif" font-size="72" font-weight="800">连接你重要的人</text>
  <text x="112" y="326" fill="#A8A29A" font-family="Arial, sans-serif" font-size="30">社交 · 家庭 · 人脉软件</text>
  <g transform="translate(112 402)">
    <rect width="168" height="54" rx="27" fill="url(#pill)"/>
    <text x="84" y="35" text-anchor="middle" fill="#111111" font-family="Arial, sans-serif" font-size="22" font-weight="700">人脉</text>
    <rect x="188" width="168" height="54" rx="27" fill="rgba(255,255,255,0.05)" stroke="rgba(255,215,106,0.22)"/>
    <text x="272" y="35" text-anchor="middle" fill="#F7F4EA" font-family="Arial, sans-serif" font-size="22" font-weight="700">机会</text>
    <rect x="376" width="168" height="54" rx="27" fill="rgba(255,255,255,0.05)" stroke="rgba(255,215,106,0.22)"/>
    <text x="460" y="35" text-anchor="middle" fill="#F7F4EA" font-family="Arial, sans-serif" font-size="22" font-weight="700">家庭</text>
  </g>
  <defs>
    <linearGradient id="body" x1="30" y1="18" x2="210" y2="230" gradientUnits="userSpaceOnUse">
      <stop stop-color="#FFF3C2"/>
      <stop offset="0.5" stop-color="#FFD76A"/>
      <stop offset="1" stop-color="#FFB84D"/>
    </linearGradient>
    <linearGradient id="pill" x1="0" y1="0" x2="168" y2="54" gradientUnits="userSpaceOnUse">
      <stop stop-color="#FFD76A"/>
      <stop offset="1" stop-color="#FFB84D"/>
    </linearGradient>
  </defs>
</svg>
